<svg xmlns="http://www.w3.org/2000/svg" viewBox="0 0 100 100">
  <defs>
    <linearGradient id="g" x1="0" y1="0" x2="0" y2="1">
      <stop offset="0" stop-color="#7a1d2c"/>
      <stop offset="1" stop-color="#5b1421"/>
    </linearGradient>
  </defs>
  <path d="M50 4 L92 16 V46 C92 70 74 88 50 96 C26 88 8 70 8 46 V16 Z"
        fill="url(#g)" stroke="#5b1421" stroke-width="1.5"/>
  <path d="M50 12 L84 22 V46 C84 66 69 81 50 88 C31 81 16 66 16 46 V22 Z"
        fill="#f7efe2"/>
  <path d="M28 44 Q50 36 72 44 V58 Q50 50 28 58 Z" fill="#7a1d2c"/>
  <line x1="50" y1="40" x2="50" y2="55" stroke="#f7efe2" stroke-width="1.2"/>
  <circle cx="50" cy="28" r="4" fill="#7a1d2c"/>
  <path d="M48 24 Q50 18 52 24" stroke="#7a1d2c" stroke-width="1.5" fill="none"/>
  <path d="M22 66 Q50 76 78 66 L78 78 Q50 86 22 78 Z" fill="#7a1d2c"/>
  <text x="50" y="76" font-size="6.5" font-weight="700" text-anchor="middle"
        fill="#f7efe2" font-family="Georgia, serif">VDIT</text>
</svg>
